REM DIRINDEX 1\2,1\3,1\4,1\5,1\6
REM DIRNAME "folder01","folder02","folder03","folder04","folder05","folder06"
TITLE ""
FILE "Disc6Track35.mp3" MP3
  TRACK 01 AUDIO
    TITLE "3:cjc161_11585"
    INDEX 01 00:00:00
  TRACK 02 AUDIO
    TITLE "4:cjc161_11586"
    INDEX 01 00:01:08
  TRACK 03 AUDIO
    TITLE "5:cjc161_11587"
    INDEX 01 00:03:03
  TRACK 04 AUDIO
    TITLE "6:cjc161_11588"
    INDEX 01 00:04:22
  TRACK 05 AUDIO
    TITLE "0:"
    INDEX 01 00:10:09
